<?xml version="1.0" encoding="UTF-8" standalone="no"?>
<!DOCTYPE svg PUBLIC "-//W3C//DTD SVG 1.1//EN" "http://www.w3.org/Graphics/SVG/1.1/DTD/svg11.dtd">
<svg width="100%" height="100%" viewBox="0 0 34 82" version="1.1" xmlns="http://www.w3.org/2000/svg" xmlns:xlink="http://www.w3.org/1999/xlink" xml:space="preserve" xmlns:serif="http://www.serif.com/" style="fill-rule:evenodd;clip-rule:evenodd;stroke-linejoin:round;stroke-miterlimit:1.41421;">
    <g transform="matrix(0.0637327,0,0,0.0637327,-7.47076,23.6112)">
        <g transform="matrix(-4.16667,0,0,4.16667,1963.79,-1300.95)">
            <path d="M316.43,530.143L441.887,530.143L441.887,225.277L316.43,225.277L316.43,530.143ZM438.121,229.043L438.121,526.377L320.196,526.377L320.196,229.043L438.121,229.043Z" style="fill:white;"/>
        </g>
        <g transform="matrix(4.16667,0,0,4.16667,260.211,-18.1312)">
            <path d="M0,-67.16L7.121,-67.16L7.121,-6.472L24.598,-6.472L24.598,0L0,0L0,-67.16Z" style="fill:white;fill-rule:nonzero;"/>
        </g>
        <g transform="matrix(4.16667,0,0,4.16667,478.672,-188.331)">
            <path d="M0,14.535L-3.247,-2.506C-4.168,-7.282 -5.007,-12.862 -5.739,-17.845L-6.021,-17.845C-6.754,-12.774 -7.676,-6.981 -8.608,-2.506L-11.832,14.535L0,14.535ZM-12.859,20.717L-16.934,40.847L-23.865,40.847L-9.624,-26.312L-1.76,-26.312L12.116,40.847L5.078,40.847L1.016,20.717L-12.859,20.717Z" style="fill:white;fill-rule:nonzero;"/>
        </g>
        <g transform="matrix(4.16667,0,0,4.16667,353.452,101.09)">
            <path d="M0,9.352C-0.461,0.496 -0.922,-9.377 -0.649,-16.946L-1.016,-16.946C-2.409,-9.471 -4.074,-1.512 -5.999,6.376L-13.592,37.859L-18.21,37.859L-25.425,7.664C-27.55,-0.898 -29.31,-9.188 -30.608,-16.946L-30.881,-16.946C-30.786,-9.07 -31.247,0.294 -31.624,9.86L-32.817,38.26L-39.205,38.26L-35.509,-28.908L-27.728,-28.908L-20.524,1.794C-18.398,10.651 -16.828,17.24 -15.528,24.905L-15.257,24.905C-14.053,17.24 -12.671,10.852 -10.628,1.794L-3.602,-28.908L4.346,-28.908L7.947,38.26L1.287,38.26L0,9.352Z" style="fill:white;fill-rule:nonzero;"/>
        </g>
        <g transform="matrix(4.16667,0,0,4.16667,509.08,90.2138)">
            <path d="M0,14.572L-3.235,-2.48C-4.156,-7.263 -4.995,-12.836 -5.728,-17.831L-6.01,-17.831C-6.742,-12.742 -7.675,-6.967 -8.596,-2.48L-11.832,14.572L0,14.572ZM-12.859,20.748L-16.922,40.87L-23.865,40.87L-9.612,-26.298L-1.759,-26.298L12.104,40.87L5.09,40.87L1.017,20.748L-12.859,20.748Z" style="fill:white;fill-rule:nonzero;"/>
        </g>
        <g transform="matrix(4.16667,0,0,4.16667,304.938,512.233)">
            <path d="M0,-53.424L-11.384,-53.424L-11.384,-60.296L18.48,-60.296L18.48,-53.424L7.109,-53.424L7.109,6.872L0,6.872L0,-53.424Z" style="fill:white;fill-rule:nonzero;"/>
        </g>
        <g transform="matrix(4.16667,0,0,4.16667,505.589,393.901)">
            <path d="M0,3.376L-15.623,3.376L-15.623,28.588L2.126,28.588L2.126,35.272L-22.743,35.272L-22.743,-31.896L1.027,-31.896L1.027,-25.225L-15.623,-25.225L-15.623,-3.095L0,-3.095L0,3.376Z" style="fill:white;fill-rule:nonzero;"/>
        </g>
        <g transform="matrix(4.16667,0,0,4.16667,512.331,654.436)">
            <path d="M0,14.547L-3.484,-2.493C-4.476,-7.275 -5.373,-12.861 -6.177,-17.845L-6.472,-17.845C-7.263,-12.766 -8.267,-6.98 -9.259,-2.493L-12.754,14.547L0,14.547ZM-13.852,20.734L-18.233,40.858L-25.708,40.858L-10.356,-26.311L-1.89,-26.311L13.06,40.858L5.49,40.858L1.098,20.734L-13.852,20.734Z" style="fill:white;fill-rule:nonzero;"/>
        </g>
        <g transform="matrix(4.16667,0,0,4.16667,246.629,690.207)">
            <path d="M0,-2.919L3.283,-2.919C10.558,-2.919 15.446,-8.292 15.446,-16.357C15.446,-24.139 12.246,-28.922 4.086,-29.016C2.48,-29.016 0.992,-28.922 0,-28.627L0,-2.919ZM-7.593,-33.894C-4.393,-34.802 -0.401,-35.191 3.39,-35.191C10.062,-35.191 15.045,-33.798 18.54,-30.421C21.823,-27.031 23.217,-22.545 23.217,-17.254C23.217,-8.693 19.226,-3.107 12.447,0.093L12.447,0.293C17.442,1.782 20.028,6.553 21.422,15.326C23.016,24.502 24.314,30.182 25.307,32.272L17.537,32.272C16.533,30.276 15.246,23.899 13.946,15.727C12.447,6.47 9.565,3.068 2.988,3.068L0,3.068L0,32.272L-7.593,32.272L-7.593,-33.894Z" style="fill:white;fill-rule:nonzero;"/>
        </g>
        <g transform="matrix(4.16667,0,0,4.16667,398.375,805.291)">
            <path d="M0,-0.001C0,2.573 -2.09,4.652 -4.664,4.652C-7.239,4.652 -9.329,2.573 -9.329,-0.001C-9.329,-2.575 -7.239,-4.653 -4.664,-4.653C-2.09,-4.653 0,-2.575 0,-0.001" style="fill:white;fill-rule:nonzero;"/>
        </g>
        <g transform="matrix(4.16667,0,0,4.16667,615.509,805.291)">
            <path d="M0,-0.001C0,2.573 -2.078,4.652 -4.664,4.652C-7.228,4.652 -9.317,2.573 -9.317,-0.001C-9.317,-2.575 -7.228,-4.653 -4.664,-4.653C-2.078,-4.653 0,-2.575 0,-0.001" style="fill:white;fill-rule:nonzero;"/>
        </g>
    </g>
</svg>
